<svg width="20" height="15" viewBox="0 0 20 15" fill="none" xmlns="http://www.w3.org/2000/svg">
<path d="M19.5879 2.19117C19.3575 1.33435 18.6819 0.658937 17.8252 0.428223C16.2602 0 9.99977 0 9.99977 0C9.99977 0 3.73963 0 2.17456 0.411988C1.33435 0.642457 0.642335 1.33448 0.411866 2.19117C0 3.75611 0 7.0016 0 7.0016C0 7.0016 0 10.2634 0.411866 11.812C0.642579 12.6687 1.31787 13.3441 2.17469 13.5749C3.75611 14.0032 10 14.0032 10 14.0032C10 14.0032 16.2602 14.0032 17.8252 13.5912C18.682 13.3606 19.3575 12.6852 19.5882 11.8285C19.9999 10.2634 19.9999 7.01808 19.9999 7.01808C19.9999 7.01808 20.0164 3.75611 19.5879 2.19117ZM8.00661 9.9999V4.0033L13.2124 7.0016L8.00661 9.9999Z" fill="white"/>
</svg>
