<svg width="100" height="100" viewBox="0 0 100 100" fill="none" xmlns="http://www.w3.org/2000/svg">
	<ellipse cx="51.5171" cy="50.9002" rx="8.27586" ry="7.97956" fill="#61DAFB" />
	<path
		fill-rule="evenodd"
		clip-rule="evenodd"
		d="M68.947 89.4C63.8193 89.4 57.4538 85.8238 51 79.7782C44.5462 85.7386 38.1807 89.3149 33.053 89.1446C31.3733 89.1446 29.7819 88.804 28.4558 88.0376C23.947 85.5683 22.2672 79.097 23.7701 69.9861C24.0354 68.3683 24.389 66.7505 24.831 65.0475C23.0629 64.6218 21.4715 64.1109 19.8802 63.5149C10.9509 60.2792 6 55.6812 6 50.5723C6 45.5485 10.9509 40.9505 19.8802 37.6297C21.4715 37.1188 23.0629 36.6079 24.831 36.097C24.389 34.3941 24.0354 32.7762 23.7701 31.1584C22.1788 22.0475 23.8585 15.6614 28.4558 13.1069C29.7819 12.3406 31.3733 12 33.053 12C38.1807 12 44.5462 15.5762 50.9116 21.6218C57.3654 15.5762 63.8192 12 68.8585 12C70.5383 12 72.1297 12.3406 73.4558 13.1069C78.053 15.6614 79.7328 22.1327 78.2299 31.4139C77.9646 33.0317 77.611 34.6495 77.169 36.3525C78.9371 36.7782 80.5285 37.2891 82.1198 37.8851C91.0491 41.1208 96 45.7188 96 50.8277C96 55.8515 91.0491 60.4495 82.1198 63.7703C80.5285 64.2812 78.9371 64.7921 77.169 65.303C77.611 67.0059 77.9646 68.6238 78.2299 70.2416C79.8212 79.3525 78.1414 85.7386 73.5442 88.2931C72.2181 89.0594 70.6267 89.4 68.947 89.4ZM50.9998 68.3684C49.32 68.3684 47.6402 68.3684 46.0489 68.2833C47.6402 70.3268 49.32 72.2001 50.9998 73.9882C52.6795 72.2001 54.3593 70.3268 55.9506 68.2833C54.3593 68.3684 52.6795 68.3684 50.9998 68.3684ZM35.0863 59.5133C35.2385 59.7625 35.3881 60.0092 35.5365 60.2539C36.2496 61.43 36.9335 62.5578 37.7386 63.6855C34.9979 63.3449 32.434 62.9192 29.9586 62.4083C30.7543 60.1093 31.6384 57.7251 32.6993 55.341C33.4065 56.7034 34.2022 58.1509 35.0863 59.5133ZM37.7386 37.715C34.9979 38.0556 32.434 38.4814 29.9586 38.9922C30.6659 41.2913 31.55 43.6754 32.6993 46.1447C33.4065 44.6972 34.2022 43.3348 35.0863 41.8873C35.9704 40.4398 36.8545 39.0774 37.7386 37.715ZM34.8212 50.6576C35.9705 48.3586 37.2082 46.0596 38.6228 43.7606C39.9489 41.5468 41.4518 39.333 42.9547 37.1192L42.9548 37.119C45.607 36.9487 48.2593 36.8636 51 36.8636C53.8291 36.8636 56.4813 36.9487 59.0452 37.119C60.6365 39.3329 62.0511 41.5468 63.3772 43.7606C64.7917 46.0596 66.0294 48.3586 67.1788 50.6576C66.0294 52.9567 64.7917 55.2557 63.3772 57.5547C62.0511 59.7685 60.5481 61.9824 59.0452 64.1963C56.3929 64.3666 53.7406 64.4517 51 64.4517C48.1709 64.4517 45.5186 64.3666 42.9548 64.1963C41.3634 61.9824 39.9489 59.7685 38.6228 57.5547C37.2082 55.2557 35.9705 52.9567 34.8212 50.6576ZM67.0018 41.802L69.3889 46.0595C70.4498 43.6753 71.3339 41.2912 72.1295 38.907C69.6541 38.3961 67.0902 37.9704 64.3496 37.6298C65.1545 38.7574 65.8383 39.885 66.5513 41.0609L66.5514 41.061L66.5515 41.0612L66.5516 41.0613L66.5516 41.0614C66.7 41.3061 66.8496 41.5528 67.0018 41.802ZM69.3889 55.2557C70.4498 57.6399 71.3339 60.0241 72.1295 62.3231C69.6541 62.834 67.0902 63.2597 64.3496 63.6003C65.2337 62.2379 66.1177 60.8755 67.0018 59.428C67.7974 58.151 68.5929 56.7038 69.3884 55.2565L69.3885 55.2564L69.3885 55.2564L69.3885 55.2563L69.3886 55.2563L69.3886 55.2562L69.3886 55.2562L69.3888 55.2559L69.3889 55.2557ZM68.8585 85.3985C69.831 85.3985 70.7151 85.2282 71.4224 84.8024C74.4283 83.1846 75.4008 77.9905 74.163 70.7529C73.8978 69.2203 73.6326 67.6876 73.1906 66.1549C69.4774 67.0064 65.499 67.6024 61.3438 67.943C58.8684 71.2638 56.3929 74.244 53.8291 76.8836C59.1336 81.9925 64.5265 85.3985 68.8585 85.3985ZM76.0195 39.9288C85.9213 42.6535 91.8446 46.8258 91.8446 50.6575C91.8446 53.9783 87.7778 57.2991 80.6167 59.9387C79.2022 60.4496 77.6108 60.9605 76.0195 61.3862C74.8702 57.8951 73.4556 54.3189 71.6875 50.6575C73.4556 46.9961 74.9586 43.4199 76.0195 39.9288ZM71.5108 16.513C70.7151 16.0872 69.9194 15.9169 68.9469 15.9169C64.6149 15.9169 59.222 19.408 53.9174 24.4318C56.4813 27.0714 59.0451 30.0516 61.4322 33.3724C65.5874 33.7981 69.5658 34.3941 73.2789 35.1605C73.3539 34.8176 73.4289 34.4784 73.503 34.1432L73.5036 34.1404L73.5039 34.1392L73.504 34.1384L73.5042 34.1377C73.7793 32.8932 74.0427 31.7015 74.2514 30.5625C75.4891 23.2397 74.4282 18.1308 71.5108 16.513ZM55.9506 33.0317C54.3593 32.9466 52.6795 32.9466 50.9998 32.9466C49.32 32.9466 47.6402 32.9466 46.0489 33.0317C47.6402 30.9882 49.32 29.1149 50.9998 27.3268C52.6795 29.1149 54.3593 31.0733 55.9506 33.0317ZM33.1413 15.9169C32.1688 15.9169 31.2847 16.0872 30.5774 16.513C27.5715 18.2159 26.599 23.3248 27.8367 30.5625C28.102 32.0951 28.3672 33.6278 28.8092 35.1605C32.5224 34.309 36.5008 33.713 40.656 33.3724C43.1314 30.0516 45.6069 27.0714 48.1707 24.4318C42.8662 19.3229 37.4733 15.9169 33.1413 15.9169ZM25.9803 61.3862C16.0786 58.6615 10.1552 54.4892 10.1552 50.6575C10.1552 47.3367 14.222 44.0159 21.3831 41.3763C22.7976 40.8654 24.389 40.3545 25.9803 39.9288C27.1296 43.4199 28.5442 46.9961 30.3123 50.6575C28.5442 54.3189 27.0412 57.9803 25.9803 61.3862ZM28.5842 67.1766C28.309 68.4215 28.0455 69.6136 27.8367 70.7529C26.599 77.9905 27.5715 83.1846 30.5774 84.8024C31.3731 85.2282 32.1688 85.3985 33.1413 85.3985C37.4733 85.3985 42.8662 81.9074 48.1707 76.8836C45.6069 74.244 43.043 71.2638 40.656 67.943C36.5008 67.5173 32.5224 66.9212 28.8092 66.1549C28.7339 66.4993 28.6587 66.8399 28.5842 67.1766Z"
		fill="#61DAFB"
	/>
</svg>