<?xml version="1.0" encoding="UTF-8"?>
<svg xmlns="http://www.w3.org/2000/svg" width="685pt" height="801pt" viewBox="0 0 388 454">
  
      
      
    <g transform="translate(58, 48) scale(1)">
      <path d="M1 4.5C1 3.67 1.67 3 2.5 3H7.2L9 4.8H15.5C16.33 4.8 17 5.47 17 6.3V14.5C17 15.33 16.33 16 15.5 16H2.5C1.67 16 1 15.33 1 14.5V4.5Z" fill="#F4B942" stroke="#D4922A" stroke-width="1.1"/>
      <path d="M1 6.5H17V14.5C17 15.33 16.33 16 15.5 16H2.5C1.67 16 1 15.33 1 14.5V6.5Z" fill="#F8D06B"/>
    </g>
      <text x="86" y="62" font-family="SF Mono, Menlo, Monaco, Consolas, monospace" font-size="15" fill="#1E293B">envs</text>
    

      <line x1="50" y1="74" x2="50" y2="91" stroke="#CBD5E1" stroke-width="1.5"/>
<line x1="50" y1="91" x2="62" y2="91" stroke="#CBD5E1" stroke-width="1.5"/>
<line x1="50" y1="91" x2="50" y2="108" stroke="#CBD5E1" stroke-width="1.5"/>
      
    <g transform="translate(86, 82) scale(1)">
      <path d="M1 4.5C1 3.67 1.67 3 2.5 3H7.2L9 4.8H15.5C16.33 4.8 17 5.47 17 6.3V14.5C17 15.33 16.33 16 15.5 16H2.5C1.67 16 1 15.33 1 14.5V4.5Z" fill="#F4B942" stroke="#D4922A" stroke-width="1.1"/>
      <path d="M1 6.5H17V14.5C17 15.33 16.33 16 15.5 16H2.5C1.67 16 1 15.33 1 14.5V6.5Z" fill="#F8D06B"/>
    </g>
      <text x="114" y="96" font-family="SF Mono, Menlo, Monaco, Consolas, monospace" font-size="15" fill="#1E293B">prod</text>
    

      <line x1="78" y1="108" x2="78" y2="125" stroke="#CBD5E1" stroke-width="1.5"/>
<line x1="78" y1="125" x2="90" y2="125" stroke="#CBD5E1" stroke-width="1.5"/>
<line x1="78" y1="125" x2="78" y2="142" stroke="#CBD5E1" stroke-width="1.5"/>
      
    <g transform="translate(114, 116) scale(1)">
      <path d="M1 4.5C1 3.67 1.67 3 2.5 3H7.2L9 4.8H15.5C16.33 4.8 17 5.47 17 6.3V14.5C17 15.33 16.33 16 15.5 16H2.5C1.67 16 1 15.33 1 14.5V4.5Z" fill="#F4B942" stroke="#D4922A" stroke-width="1.1"/>
      <path d="M1 6.5H17V14.5C17 15.33 16.33 16 15.5 16H2.5C1.67 16 1 15.33 1 14.5V6.5Z" fill="#F8D06B"/>
    </g>
      <text x="142" y="130" font-family="SF Mono, Menlo, Monaco, Consolas, monospace" font-size="15" fill="#1E293B">folder</text>
    

      <line x1="78" y1="142" x2="78" y2="176" stroke="#CBD5E1" stroke-width="1.5"/>
<line x1="106" y1="142" x2="106" y2="159" stroke="#CBD5E1" stroke-width="1.5"/>
<line x1="106" y1="159" x2="118" y2="159" stroke="#CBD5E1" stroke-width="1.5"/>
      
    <g transform="translate(142, 150) scale(1)">
      <path d="M4 1H11L15 5V15C15 16.1 14.1 17 13 17H4C2.9 17 2 16.1 2 15V3C2 1.9 2.9 1 4 1Z" fill="#FFFFFF" stroke="#94A3B8" stroke-width="1.2"/>
      <path d="M11 1V5H15" fill="none" stroke="#94A3B8" stroke-width="1.2"/>
      <path d="M5.2 10.2L6.4 12.4L8.6 8.8" fill="none" stroke="#7C3AED" stroke-width="1.3" stroke-linecap="round" stroke-linejoin="round"/>
      <path d="M9.2 12.4H12.4" fill="none" stroke="#7C3AED" stroke-width="1.3" stroke-linecap="round"/>
      <path d="M9.2 9.6H12.4" fill="none" stroke="#7C3AED" stroke-width="1.3" stroke-linecap="round"/>
    </g>
      <text x="170" y="164" font-family="SF Mono, Menlo, Monaco, Consolas, monospace" font-size="15" fill="#1E293B">terragrunt.hcl</text>
    

      <line x1="78" y1="176" x2="78" y2="193" stroke="#CBD5E1" stroke-width="1.5"/>
<line x1="78" y1="193" x2="90" y2="193" stroke="#CBD5E1" stroke-width="1.5"/>
      
    <g transform="translate(114, 184) scale(1)">
      <path d="M1 4.5C1 3.67 1.67 3 2.5 3H7.2L9 4.8H15.5C16.33 4.8 17 5.47 17 6.3V14.5C17 15.33 16.33 16 15.5 16H2.5C1.67 16 1 15.33 1 14.5V4.5Z" fill="#F4B942" stroke="#D4922A" stroke-width="1.1"/>
      <path d="M1 6.5H17V14.5C17 15.33 16.33 16 15.5 16H2.5C1.67 16 1 15.33 1 14.5V6.5Z" fill="#F8D06B"/>
    </g>
      <text x="142" y="198" font-family="SF Mono, Menlo, Monaco, Consolas, monospace" font-size="15" fill="#1E293B">project</text>
    

      <line x1="78" y1="210" x2="78" y2="244" stroke="#CBD5E1" stroke-width="1.5"/>
<line x1="106" y1="210" x2="106" y2="227" stroke="#CBD5E1" stroke-width="1.5"/>
<line x1="106" y1="227" x2="118" y2="227" stroke="#CBD5E1" stroke-width="1.5"/>
      
    <g transform="translate(142, 218) scale(1)">
      <path d="M4 1H11L15 5V15C15 16.1 14.1 17 13 17H4C2.9 17 2 16.1 2 15V3C2 1.9 2.9 1 4 1Z" fill="#FFFFFF" stroke="#94A3B8" stroke-width="1.2"/>
      <path d="M11 1V5H15" fill="none" stroke="#94A3B8" stroke-width="1.2"/>
      <path d="M5.2 10.2L6.4 12.4L8.6 8.8" fill="none" stroke="#7C3AED" stroke-width="1.3" stroke-linecap="round" stroke-linejoin="round"/>
      <path d="M9.2 12.4H12.4" fill="none" stroke="#7C3AED" stroke-width="1.3" stroke-linecap="round"/>
      <path d="M9.2 9.6H12.4" fill="none" stroke="#7C3AED" stroke-width="1.3" stroke-linecap="round"/>
    </g>
      <text x="170" y="232" font-family="SF Mono, Menlo, Monaco, Consolas, monospace" font-size="15" fill="#1E293B">terragrunt.hcl</text>
    

      <line x1="50" y1="244" x2="50" y2="261" stroke="#CBD5E1" stroke-width="1.5"/>
<line x1="50" y1="261" x2="62" y2="261" stroke="#CBD5E1" stroke-width="1.5"/>
      
    <g transform="translate(86, 252) scale(1)">
      <path d="M1 4.5C1 3.67 1.67 3 2.5 3H7.2L9 4.8H15.5C16.33 4.8 17 5.47 17 6.3V14.5C17 15.33 16.33 16 15.5 16H2.5C1.67 16 1 15.33 1 14.5V4.5Z" fill="#F4B942" stroke="#D4922A" stroke-width="1.1"/>
      <path d="M1 6.5H17V14.5C17 15.33 16.33 16 15.5 16H2.5C1.67 16 1 15.33 1 14.5V6.5Z" fill="#F8D06B"/>
    </g>
      <text x="114" y="266" font-family="SF Mono, Menlo, Monaco, Consolas, monospace" font-size="15" fill="#1E293B">non-prod</text>
    

      <line x1="78" y1="278" x2="78" y2="295" stroke="#CBD5E1" stroke-width="1.5"/>
<line x1="78" y1="295" x2="90" y2="295" stroke="#CBD5E1" stroke-width="1.5"/>
<line x1="78" y1="295" x2="78" y2="312" stroke="#CBD5E1" stroke-width="1.5"/>
      
    <g transform="translate(114, 286) scale(1)">
      <path d="M1 4.5C1 3.67 1.67 3 2.5 3H7.2L9 4.8H15.5C16.33 4.8 17 5.47 17 6.3V14.5C17 15.33 16.33 16 15.5 16H2.5C1.67 16 1 15.33 1 14.5V4.5Z" fill="#F4B942" stroke="#D4922A" stroke-width="1.1"/>
      <path d="M1 6.5H17V14.5C17 15.33 16.33 16 15.5 16H2.5C1.67 16 1 15.33 1 14.5V6.5Z" fill="#F8D06B"/>
    </g>
      <text x="142" y="300" font-family="SF Mono, Menlo, Monaco, Consolas, monospace" font-size="15" fill="#1E293B">folder</text>
    

      <line x1="106" y1="312" x2="106" y2="329" stroke="#CBD5E1" stroke-width="1.5"/>
<line x1="106" y1="329" x2="118" y2="329" stroke="#CBD5E1" stroke-width="1.5"/>
      
    <g transform="translate(142, 320) scale(1)">
      <path d="M4 1H11L15 5V15C15 16.1 14.1 17 13 17H4C2.9 17 2 16.1 2 15V3C2 1.9 2.9 1 4 1Z" fill="#FFFFFF" stroke="#94A3B8" stroke-width="1.2"/>
      <path d="M11 1V5H15" fill="none" stroke="#94A3B8" stroke-width="1.2"/>
      <path d="M5.2 10.2L6.4 12.4L8.6 8.8" fill="none" stroke="#7C3AED" stroke-width="1.3" stroke-linecap="round" stroke-linejoin="round"/>
      <path d="M9.2 12.4H12.4" fill="none" stroke="#7C3AED" stroke-width="1.3" stroke-linecap="round"/>
      <path d="M9.2 9.6H12.4" fill="none" stroke="#7C3AED" stroke-width="1.3" stroke-linecap="round"/>
    </g>
      <text x="170" y="334" font-family="SF Mono, Menlo, Monaco, Consolas, monospace" font-size="15" fill="#1E293B">terragrunt.hcl</text>
    

      <line x1="78" y1="346" x2="78" y2="363" stroke="#CBD5E1" stroke-width="1.5"/>
<line x1="78" y1="363" x2="90" y2="363" stroke="#CBD5E1" stroke-width="1.5"/>
      
    <g transform="translate(114, 354) scale(1)">
      <path d="M1 4.5C1 3.67 1.67 3 2.5 3H7.2L9 4.8H15.5C16.33 4.8 17 5.47 17 6.3V14.5C17 15.33 16.33 16 15.5 16H2.5C1.67 16 1 15.33 1 14.5V4.5Z" fill="#F4B942" stroke="#D4922A" stroke-width="1.1"/>
      <path d="M1 6.5H17V14.5C17 15.33 16.33 16 15.5 16H2.5C1.67 16 1 15.33 1 14.5V6.5Z" fill="#F8D06B"/>
    </g>
      <text x="142" y="368" font-family="SF Mono, Menlo, Monaco, Consolas, monospace" font-size="15" fill="#1E293B">project</text>
    

      <line x1="106" y1="380" x2="106" y2="397" stroke="#CBD5E1" stroke-width="1.5"/>
<line x1="106" y1="397" x2="118" y2="397" stroke="#CBD5E1" stroke-width="1.5"/>
      
    <g transform="translate(142, 388) scale(1)">
      <path d="M4 1H11L15 5V15C15 16.1 14.1 17 13 17H4C2.9 17 2 16.1 2 15V3C2 1.9 2.9 1 4 1Z" fill="#FFFFFF" stroke="#94A3B8" stroke-width="1.2"/>
      <path d="M11 1V5H15" fill="none" stroke="#94A3B8" stroke-width="1.2"/>
      <path d="M5.2 10.2L6.4 12.4L8.6 8.8" fill="none" stroke="#7C3AED" stroke-width="1.3" stroke-linecap="round" stroke-linejoin="round"/>
      <path d="M9.2 12.4H12.4" fill="none" stroke="#7C3AED" stroke-width="1.3" stroke-linecap="round"/>
      <path d="M9.2 9.6H12.4" fill="none" stroke="#7C3AED" stroke-width="1.3" stroke-linecap="round"/>
    </g>
      <text x="170" y="402" font-family="SF Mono, Menlo, Monaco, Consolas, monospace" font-size="15" fill="#1E293B">terragrunt.hcl</text>
    
</svg>
