<svg width="207" height="29" viewBox="0 0 207 29" fill="none" xmlns="http://www.w3.org/2000/svg">
<path fill-rule="evenodd" clip-rule="evenodd" d="M16.0114 24.1293C16.6032 24.6116 17.3466 24.8523 18.2413 24.8523C19.0828 24.8523 19.9051 24.605 20.708 24.11C21.5103 23.6154 22.1745 22.8466 22.701 21.8043C23.227 20.7628 23.4906 19.4734 23.4906 17.9359V17.6235C23.1481 17.8578 22.7208 18.0274 22.2076 18.1313C21.6947 18.2356 21.0298 18.3401 20.2144 18.4439C19.1095 18.5744 18.2215 18.737 17.5504 18.9324C16.8794 19.1278 16.3072 19.4794 15.8339 19.9874C15.3601 20.4954 15.1234 21.2316 15.1234 22.1951C15.1234 23.003 15.4194 23.6477 16.0114 24.1293ZM26.0755 9.47578C27.7727 10.6615 28.6212 12.6217 28.6212 15.357V27.3531H23.4906V24.3443C22.5432 25.4385 21.3987 26.2785 20.0567 26.8649C18.7148 27.4508 17.3592 27.7439 15.9916 27.7439C14.2809 27.7439 12.8538 27.2689 11.7093 26.3177C10.5648 25.3672 9.99255 23.9925 9.99255 22.1951C9.99255 20.502 10.4268 19.2193 11.2948 18.3462C12.1633 17.4736 13.1893 16.9071 14.3734 16.6466C15.5574 16.3863 17.083 16.1775 18.9515 16.0213C20.5827 15.891 21.7469 15.728 22.4445 15.5328C23.1414 15.3374 23.4906 14.9143 23.4906 14.2628C23.4906 13.1948 23.155 12.4525 22.4841 12.0355C21.8132 11.619 21.004 11.4102 20.0567 11.4102C19.0828 11.4102 18.1624 11.6384 17.2939 12.0938C16.4259 12.55 15.8732 13.4556 15.6363 14.8098L10.7819 13.7546C11.0977 11.671 12.1299 10.1403 13.88 9.16335C15.6296 8.18645 17.6097 7.698 19.82 7.698C22.293 7.698 24.3784 8.29074 26.0755 9.47578Z" fill="#4D4D4D"/>
<path fill-rule="evenodd" clip-rule="evenodd" d="M35.6068 17.5842C35.6068 19.7723 36.0866 21.3488 37.0475 22.3125C38.0075 23.2764 39.2378 23.758 40.7376 23.758C42.0263 23.758 43.0921 23.4715 43.9344 22.8984C44.7762 22.3257 45.4342 21.3617 45.9078 20.0068L50.1308 22.0387C49.3939 23.9406 48.1968 25.3409 46.5392 26.2394C44.8815 27.1382 42.9608 27.5875 40.777 27.5875C38.9873 27.5875 37.3099 27.2102 35.745 26.4544C34.1792 25.6991 32.9094 24.5657 31.9362 23.0546C30.9626 21.5444 30.476 19.7206 30.476 17.5842C30.476 15.4484 30.9626 13.6246 31.9362 12.1135C32.9094 10.603 34.1792 9.4697 35.745 8.71391C37.3099 7.95858 38.9873 7.58057 40.777 7.58057C42.9608 7.58057 44.8815 8.03008 46.5392 8.92865C48.1968 9.82744 49.3939 11.2281 50.1308 13.1296L45.9078 15.1612C45.4342 13.8072 44.7762 12.8431 43.9344 12.2697C43.0921 11.697 42.0263 11.4101 40.7376 11.4101C39.2378 11.4101 38.0075 11.8924 37.0475 12.8558C36.0866 13.82 35.6068 15.396 35.6068 17.5842Z" fill="#4D4D4D"/>
<path fill-rule="evenodd" clip-rule="evenodd" d="M57.8861 24.1293C58.4778 24.6116 59.2212 24.8523 60.1159 24.8523C60.9575 24.8523 61.7797 24.605 62.5827 24.11C63.3849 23.6154 64.0491 22.8466 64.5756 21.8043C65.1016 20.7628 65.3652 19.4734 65.3652 17.9359V17.6235C65.0227 17.8578 64.5954 18.0274 64.0823 18.1313C63.5694 18.2356 62.9044 18.3401 62.0891 18.4439C60.9842 18.5744 60.0961 18.737 59.425 18.9324C58.7541 19.1278 58.1818 19.4794 57.7085 19.9874C57.2347 20.4954 56.998 21.2316 56.998 22.1951C56.998 23.003 57.294 23.6477 57.8861 24.1293ZM67.9502 9.47578C69.6473 10.6615 70.4958 12.6217 70.4958 15.357V27.3531H65.3652V24.3443C64.4178 25.4385 63.2733 26.2785 61.9313 26.8649C60.5895 27.4508 59.2339 27.7439 57.8663 27.7439C56.1555 27.7439 54.7284 27.2689 53.5839 26.3177C52.4394 25.3672 51.8672 23.9925 51.8672 22.1951C51.8672 20.502 52.3014 19.2193 53.1694 18.3462C54.0379 17.4736 55.064 16.9071 56.248 16.6466C57.432 16.3863 58.9576 16.1775 60.8261 16.0213C62.4573 15.891 63.6216 15.728 64.3192 15.5328C65.0161 15.3374 65.3652 14.9143 65.3652 14.2628C65.3652 13.1948 65.0296 12.4525 64.3587 12.0355C63.6878 11.619 62.8787 11.4102 61.9313 11.4102C60.9575 11.4102 60.037 11.6384 59.1685 12.0938C58.3005 12.55 57.7478 13.4556 57.5109 14.8098L52.6565 13.7546C52.9723 11.671 54.0046 10.1403 55.7546 9.16335C57.5043 8.18645 59.4843 7.698 61.6946 7.698C64.1676 7.698 66.253 8.29074 67.9502 9.47578Z" fill="#4D4D4D"/>
<path fill-rule="evenodd" clip-rule="evenodd" d="M86.6974 22.3317C87.8152 21.3812 88.3748 19.7986 88.3748 17.584C88.3748 15.3959 87.8152 13.8199 86.6974 12.856C85.5787 11.8923 84.204 11.41 82.5728 11.41C81.0468 11.41 79.8165 11.9248 78.8827 12.9534C77.9485 13.9829 77.4818 15.5264 77.4818 17.584C77.4818 19.6421 77.9485 21.1858 78.8827 22.2144C79.8165 23.2439 81.0468 23.7581 82.5728 23.7581C84.204 23.7581 85.5787 23.2831 86.6974 22.3317ZM93.5057 27.3531H88.3748V24.4224C87.6379 25.4646 86.6836 26.2527 85.5134 26.7863C84.3422 27.3205 83.0331 27.5874 81.5861 27.5874C79.7967 27.5874 78.2049 27.1966 76.8109 26.4153C75.4157 25.6336 74.3244 24.4877 73.5348 22.9766C72.7456 21.4659 72.351 19.6686 72.351 17.584C72.351 15.5002 72.7456 13.7026 73.5348 12.1917C74.3244 10.681 75.4157 9.53449 76.8109 8.75297C78.2049 7.97122 79.7967 7.58068 81.5861 7.58068C83.0331 7.58068 84.3422 7.84802 85.5134 8.38156C86.6836 8.91601 87.6379 9.70414 88.3748 10.7457V0H93.5057V27.3531Z" fill="#4D4D4D"/>
<path fill-rule="evenodd" clip-rule="evenodd" d="M102.603 12.5628C101.774 13.2015 101.201 14.1843 100.886 15.5131H110.121C109.832 14.1843 109.246 13.2015 108.365 12.5628C107.483 11.9247 106.49 11.6055 105.385 11.6055C104.359 11.6055 103.432 11.9247 102.603 12.5628ZM115.37 19.1472H100.807C101.017 20.71 101.55 21.8304 102.406 22.5076C103.26 23.1853 104.254 23.5237 105.385 23.5237C107.963 23.5237 109.818 22.4165 110.95 20.2022L114.936 21.8434C114.173 23.6671 112.983 25.0806 111.364 26.083C109.746 27.0861 107.766 27.5873 105.425 27.5873C103.662 27.5873 102.03 27.2102 100.531 26.4544C99.031 25.6991 97.8269 24.5725 96.9193 23.0742C96.0118 21.5765 95.5577 19.7468 95.5577 17.5842C95.5577 15.4222 96.0118 13.5923 96.9193 12.0937C97.8269 10.5962 99.031 9.4697 100.531 8.71391C102.03 7.95858 103.662 7.58057 105.425 7.58057C107.214 7.58057 108.871 7.95197 110.398 8.69433C111.923 9.43668 113.153 10.5639 114.088 12.0743C115.021 13.5854 115.489 15.4222 115.489 17.5842C115.489 18.1056 115.449 18.6264 115.37 19.1472Z" fill="#4D4D4D"/>
<path fill-rule="evenodd" clip-rule="evenodd" d="M145.227 9.92512C146.03 11.5408 146.431 13.6765 146.431 16.3337V27.3529H141.3V16.3337C141.3 14.4061 141.149 12.9927 140.846 12.0937C140.544 11.1951 139.88 10.7458 138.853 10.7458C137.774 10.7458 136.788 11.3843 135.893 12.6604C134.998 13.937 134.551 16.5291 134.551 20.4365V27.3529H129.421V16.3337C129.421 14.4061 129.269 12.9927 128.967 12.0937C128.664 11.1951 128 10.7458 126.974 10.7458C125.894 10.7458 124.908 11.3843 124.014 12.6604C123.119 13.937 122.672 16.5291 122.672 20.4365V27.3529H117.541V7.8151H122.672V11.1755C123.935 8.7271 125.855 7.50244 128.434 7.50244C130.118 7.50244 131.407 7.90664 132.302 8.71389C133.196 9.5216 133.814 10.6156 134.157 11.9962C134.788 10.4858 135.623 9.35856 136.663 8.6162C137.702 7.87362 138.919 7.50244 140.314 7.50244C142.787 7.50244 144.425 8.31015 145.227 9.92512Z" fill="#4D4D4D"/>
<path fill-rule="evenodd" clip-rule="evenodd" d="M155.213 12.5628C154.384 13.2015 153.811 14.1843 153.496 15.5131H162.731C162.441 14.1843 161.856 13.2015 160.975 12.5628C160.093 11.9247 159.1 11.6055 157.995 11.6055C156.969 11.6055 156.041 11.9247 155.213 12.5628ZM167.98 19.1472H153.417C153.627 20.71 154.16 21.8304 155.015 22.5076C155.87 23.1853 156.863 23.5237 157.995 23.5237C160.573 23.5237 162.428 22.4165 163.56 20.2022L167.546 21.8434C166.783 23.6671 165.593 25.0806 163.974 26.083C162.356 27.0861 160.376 27.5873 158.035 27.5873C156.271 27.5873 154.64 27.2102 153.14 26.4544C151.641 25.6991 150.437 24.5725 149.529 23.0742C148.622 21.5765 148.168 19.7468 148.168 17.5842C148.168 15.4222 148.622 13.5923 149.529 12.0937C150.437 10.5962 151.641 9.4697 153.14 8.71391C154.64 7.95858 156.271 7.58057 158.035 7.58057C159.824 7.58057 161.481 7.95197 163.007 8.69433C164.533 9.43668 165.763 10.5639 166.698 12.0743C167.631 13.5854 168.099 15.4222 168.099 17.5842C168.099 18.1056 168.059 18.6264 167.98 19.1472Z" fill="#4D4D4D"/>
<path fill-rule="evenodd" clip-rule="evenodd" d="M176.486 12.5628C175.657 13.2015 175.085 14.1843 174.769 15.5131H184.004C183.715 14.1843 183.129 13.2015 182.248 12.5628C181.366 11.9247 180.373 11.6055 179.268 11.6055C178.242 11.6055 177.315 11.9247 176.486 12.5628ZM189.253 19.1472H174.69C174.9 20.71 175.433 21.8304 176.289 22.5076C177.143 23.1853 178.137 23.5237 179.268 23.5237C181.847 23.5237 183.701 22.4165 184.833 20.2022L188.819 21.8434C188.056 23.6671 186.866 25.0806 185.248 26.083C183.629 27.0861 181.649 27.5873 179.308 27.5873C177.545 27.5873 175.913 27.2102 174.414 26.4544C172.914 25.6991 171.71 24.5725 170.802 23.0742C169.895 21.5765 169.441 19.7468 169.441 17.5842C169.441 15.4222 169.895 13.5923 170.802 12.0937C171.71 10.5962 172.914 9.4697 174.414 8.71391C175.913 7.95858 177.545 7.58057 179.308 7.58057C181.097 7.58057 182.754 7.95197 184.281 8.69433C185.806 9.43668 187.036 10.5639 187.971 12.0743C188.904 13.5854 189.372 15.4222 189.372 17.5842C189.372 18.1056 189.332 18.6264 189.253 19.1472Z" fill="#4D4D4D"/>
<path fill-rule="evenodd" clip-rule="evenodd" d="M206.816 27.353H190.043V23.0938L200.936 12.0744H190.358V7.81519H206.698V12.0744L195.805 23.0938H206.816V27.353Z" fill="#4D4D4D"/>
<mask id="mask0_5_726" style="mask-type:luminance" maskUnits="userSpaceOnUse" x="0" y="0" width="20" height="29">
<path fill-rule="evenodd" clip-rule="evenodd" d="M0 0.26709H19.2241V28.1571H0V0.26709Z" fill="white"/>
</mask>
<g mask="url(#mask0_5_726)">
<path fill-rule="evenodd" clip-rule="evenodd" d="M0 28.1571H7.4175L19.2241 0.26709H11.8066L0 28.1571Z" fill="#01D662"/>
</g>
</svg>
