<svg width="220" height="31" viewBox="0 0 220 31" fill="none" xmlns="http://www.w3.org/2000/svg">
<path fill-rule="evenodd" clip-rule="evenodd" d="M18.1385 25.7746C18.764 26.2898 19.5497 26.5469 20.4953 26.5469C21.3848 26.5469 22.2538 26.2827 23.1025 25.7539C23.9504 25.2256 24.6524 24.4044 25.2089 23.2911C25.7648 22.1785 26.0434 20.8013 26.0434 19.1589V18.8251C25.6815 19.0754 25.2298 19.2567 24.6875 19.3676C24.1454 19.479 23.4426 19.5906 22.5808 19.7015C21.413 19.8409 20.4744 20.0146 19.765 20.2233C19.0559 20.432 18.4511 20.8076 17.9508 21.3503C17.4501 21.8929 17.1999 22.6793 17.1999 23.7085C17.1999 24.5715 17.5128 25.2601 18.1385 25.7746ZM28.7756 10.1219C30.5694 11.3885 31.4661 13.4823 31.4661 16.4041V29.2182H26.0434V26.0042C25.0421 27.173 23.8325 28.0703 22.414 28.6967C20.9958 29.3225 19.563 29.6356 18.1176 29.6356C16.3095 29.6356 14.8011 29.1282 13.5914 28.1122C12.3818 27.0969 11.777 25.6284 11.777 23.7085C11.777 21.9 12.2359 20.5298 13.1534 19.5972C14.0713 18.6651 15.1557 18.0599 16.4072 17.7816C17.6586 17.5036 19.2711 17.2805 21.246 17.1137C22.97 16.9745 24.2005 16.8004 24.9378 16.5919C25.6744 16.3832 26.0434 15.9313 26.0434 15.2354C26.0434 14.0945 25.6888 13.3016 24.9797 12.8562C24.2705 12.4113 23.4153 12.1883 22.414 12.1883C21.3848 12.1883 20.4119 12.432 19.494 12.9185C18.5766 13.4057 17.9924 14.3731 17.742 15.8196L12.6113 14.6924C12.945 12.4668 14.036 10.8317 15.8858 9.78817C17.735 8.74466 19.8278 8.2229 22.1639 8.2229C24.7776 8.2229 26.9818 8.85606 28.7756 10.1219Z" fill="white"/>
<path fill-rule="evenodd" clip-rule="evenodd" d="M38.8495 18.7831C38.8495 21.1204 39.3565 22.8044 40.3722 23.8338C41.3869 24.8634 42.6872 25.3779 44.2724 25.3779C45.6344 25.3779 46.7609 25.0719 47.6512 24.4597C48.5409 23.8479 49.2364 22.8182 49.7369 21.371L54.2003 23.5414C53.4215 25.573 52.1562 27.0687 50.4042 28.0285C48.6522 28.9886 46.6221 29.4685 44.314 29.4685C42.4224 29.4685 40.6496 29.0655 38.9956 28.2581C37.3406 27.4513 35.9984 26.2407 34.9699 24.6265C33.9409 23.0133 33.4265 21.0652 33.4265 18.7831C33.4265 16.5017 33.9409 14.5536 34.9699 12.9394C35.9984 11.326 37.3406 10.1154 38.9956 9.30803C40.6496 8.5012 42.4224 8.09741 44.314 8.09741C46.6221 8.09741 48.6522 8.57757 50.4042 9.53741C52.1562 10.4975 53.4215 11.9937 54.2003 14.0248L49.7369 16.195C49.2364 14.7487 48.5409 13.7188 47.6512 13.1063C46.7609 12.4945 45.6344 12.188 44.2724 12.188C42.6872 12.188 41.3869 12.7032 40.3722 13.7324C39.3565 14.7623 38.8495 16.4458 38.8495 18.7831Z" fill="white"/>
<path fill-rule="evenodd" clip-rule="evenodd" d="M62.397 25.7746C63.0225 26.2898 63.8082 26.5469 64.7538 26.5469C65.6433 26.5469 66.5124 26.2827 67.361 25.7539C68.2089 25.2256 68.911 24.4044 69.4674 23.2911C70.0234 22.1785 70.302 20.8013 70.302 19.1589V18.8251C69.94 19.0754 69.4883 19.2567 68.946 19.3676C68.4039 19.479 67.7011 19.5906 66.8393 19.7015C65.6715 19.8409 64.7329 20.0146 64.0236 20.2233C63.3145 20.432 62.7097 20.8076 62.2094 21.3503C61.7086 21.8929 61.4585 22.6793 61.4585 23.7085C61.4585 24.5715 61.7713 25.2601 62.397 25.7746ZM73.0341 10.1219C74.8279 11.3885 75.7247 13.4823 75.7247 16.4041V29.2182H70.302V26.0042C69.3007 27.173 68.091 28.0703 66.6726 28.6967C65.2544 29.3225 63.8216 29.6356 62.3761 29.6356C60.568 29.6356 59.0596 29.1282 57.85 28.1122C56.6403 27.0969 56.0355 25.6284 56.0355 23.7085C56.0355 21.9 56.4945 20.5298 57.4119 19.5972C58.3298 18.6651 59.4143 18.0599 60.6657 17.7816C61.9172 17.5036 63.5296 17.2805 65.5045 17.1137C67.2285 16.9745 68.4591 16.8004 69.1964 16.5919C69.933 16.3832 70.302 15.9313 70.302 15.2354C70.302 14.0945 69.9473 13.3016 69.2382 12.8562C68.5291 12.4113 67.6739 12.1883 66.6726 12.1883C65.6433 12.1883 64.6705 12.432 63.7525 12.9185C62.8351 13.4057 62.2509 14.3731 62.0006 15.8196L56.8698 14.6924C57.2036 12.4668 58.2946 10.8317 60.1443 9.78817C61.9935 8.74466 64.0863 8.2229 66.4224 8.2229C69.0362 8.2229 71.2403 8.85606 73.0341 10.1219Z" fill="white"/>
<path fill-rule="evenodd" clip-rule="evenodd" d="M92.8485 23.8544C94.03 22.8391 94.6214 21.1485 94.6214 18.783C94.6214 16.4457 94.03 14.7622 92.8485 13.7325C91.6661 12.7031 90.2131 12.1879 88.4891 12.1879C86.8762 12.1879 85.5759 12.7379 84.5889 13.8366C83.6015 14.9364 83.1082 16.5851 83.1082 18.783C83.1082 20.9814 83.6015 22.6304 84.5889 23.7291C85.5759 24.8288 86.8762 25.3781 88.4891 25.3781C90.2131 25.3781 91.6661 24.8706 92.8485 23.8544ZM100.044 29.2181H94.6214V26.0876C93.8425 27.2009 92.8339 28.0428 91.5971 28.6127C90.3592 29.1834 88.9756 29.4684 87.4463 29.4684C85.555 29.4684 83.8725 29.051 82.3991 28.2165C80.9245 27.3814 79.771 26.1574 78.9365 24.5432C78.1025 22.9296 77.6853 21.0096 77.6853 18.783C77.6853 16.5571 78.1025 14.6369 78.9365 13.023C79.771 11.4093 80.9245 10.1846 82.3991 9.34978C83.8725 8.51473 85.555 8.09757 87.4463 8.09757C88.9756 8.09757 90.3592 8.38314 91.5971 8.95305C92.8339 9.52395 93.8425 10.3658 94.6214 11.4784V0H100.044V29.2181Z" fill="white"/>
<path fill-rule="evenodd" clip-rule="evenodd" d="M109.659 13.4193C108.783 14.1016 108.178 15.1515 107.845 16.5708H117.606C117.3 15.1515 116.681 14.1016 115.75 13.4193C114.818 12.7378 113.768 12.3967 112.6 12.3967C111.516 12.3967 110.535 12.7378 109.659 13.4193ZM123.154 20.4527H107.761C107.983 22.1221 108.547 23.3188 109.451 24.0422C110.354 24.7661 111.404 25.1276 112.6 25.1276C115.325 25.1276 117.286 23.945 118.482 21.5797L122.695 23.3327C121.888 25.2808 120.63 26.7907 118.92 27.8614C117.21 28.9329 115.117 29.4683 112.642 29.4683C110.779 29.4683 109.055 29.0655 107.469 28.2581C105.884 27.4513 104.612 26.248 103.652 24.6474C102.693 23.0476 102.213 21.0932 102.213 18.7831C102.213 16.4737 102.693 14.519 103.652 12.9183C104.612 11.3187 105.884 10.1154 107.469 9.30803C109.055 8.5012 110.779 8.09741 112.642 8.09741C114.533 8.09741 116.285 8.49414 117.898 9.28711C119.51 10.0801 120.811 11.2841 121.798 12.8976C122.785 14.5117 123.279 16.4737 123.279 18.7831C123.279 19.3401 123.237 19.8964 123.154 20.4527Z" fill="white"/>
<path fill-rule="evenodd" clip-rule="evenodd" d="M154.711 10.602C155.559 12.3278 155.983 14.6092 155.983 17.4476V29.2182H150.56V17.4476C150.56 15.3886 150.4 13.8788 150.08 12.9184C149.76 11.9586 149.058 11.4787 147.974 11.4787C146.833 11.4787 145.79 12.1607 144.845 13.5239C143.899 14.8875 143.427 17.6563 143.427 21.8301V29.2182H138.004V17.4476C138.004 15.3886 137.844 13.8788 137.524 12.9184C137.204 11.9586 136.502 11.4787 135.418 11.4787C134.277 11.4787 133.234 12.1607 132.289 13.5239C131.343 14.8875 130.871 17.6563 130.871 21.8301V29.2182H125.448V8.34813H130.871V11.9377C132.206 9.32232 134.235 8.01416 136.961 8.01416C138.741 8.01416 140.103 8.44592 141.049 9.30821C141.994 10.171 142.648 11.3395 143.01 12.8143C143.677 11.2009 144.56 9.99684 145.659 9.20386C146.757 8.41065 148.043 8.01416 149.517 8.01416C152.131 8.01416 153.862 8.87694 154.711 10.602Z" fill="white"/>
<path fill-rule="evenodd" clip-rule="evenodd" d="M165.264 13.4193C164.388 14.1016 163.783 15.1515 163.45 16.5708H173.211C172.905 15.1515 172.286 14.1016 171.355 13.4193C170.423 12.7378 169.373 12.3967 168.205 12.3967C167.121 12.3967 166.14 12.7378 165.264 13.4193ZM178.759 20.4527H163.366C163.588 22.1221 164.152 23.3188 165.056 24.0422C165.959 24.7661 167.009 25.1276 168.205 25.1276C170.93 25.1276 172.891 23.945 174.087 21.5797L178.3 23.3327C177.493 25.2808 176.235 26.7907 174.525 27.8614C172.815 28.9329 170.722 29.4683 168.247 29.4683C166.383 29.4683 164.659 29.0655 163.074 28.2581C161.489 27.4513 160.217 26.248 159.257 24.6474C158.298 23.0476 157.818 21.0932 157.818 18.7831C157.818 16.4737 158.298 14.519 159.257 12.9183C160.217 11.3187 161.489 10.1154 163.074 9.30803C164.659 8.5012 166.383 8.09741 168.247 8.09741C170.138 8.09741 171.89 8.49414 173.503 9.28711C175.115 10.0801 176.416 11.2841 177.403 12.8976C178.39 14.5117 178.884 16.4737 178.884 18.7831C178.884 19.3401 178.842 19.8964 178.759 20.4527Z" fill="white"/>
<path fill-rule="evenodd" clip-rule="evenodd" d="M187.748 13.4193C186.872 14.1016 186.268 15.1515 185.934 16.5708H195.695C195.389 15.1515 194.77 14.1016 193.839 13.4193C192.907 12.7378 191.857 12.3967 190.689 12.3967C189.605 12.3967 188.625 12.7378 187.748 13.4193ZM201.243 20.4527H185.85C186.073 22.1221 186.636 23.3188 187.54 24.0422C188.443 24.7661 189.493 25.1276 190.689 25.1276C193.414 25.1276 195.375 23.945 196.571 21.5797L200.784 23.3327C199.978 25.2808 198.72 26.7907 197.009 27.8614C195.299 28.9329 193.206 29.4683 190.731 29.4683C188.868 29.4683 187.144 29.0655 185.558 28.2581C183.973 27.4513 182.701 26.248 181.742 24.6474C180.782 23.0476 180.302 21.0932 180.302 18.7831C180.302 16.4737 180.782 14.519 181.742 12.9183C182.701 11.3187 183.973 10.1154 185.558 9.30803C187.144 8.5012 188.868 8.09741 190.731 8.09741C192.622 8.09741 194.374 8.49414 195.987 9.28711C197.6 10.0801 198.9 11.2841 199.888 12.8976C200.874 14.5117 201.368 16.4737 201.368 18.7831C201.368 19.3401 201.326 19.8964 201.243 20.4527Z" fill="white"/>
<path fill-rule="evenodd" clip-rule="evenodd" d="M219.806 29.2182H202.077V24.6686L213.591 12.8978H202.411V8.34814H219.681V12.8978L208.168 24.6686H219.806V29.2182Z" fill="white"/>
<mask id="mask0_22_3595" style="mask-type:luminance" maskUnits="userSpaceOnUse" x="0" y="0" width="21" height="31">
<path fill-rule="evenodd" clip-rule="evenodd" d="M0 0.285156H20.3185V30.0769H0V0.285156Z" fill="white"/>
</mask>
<g mask="url(#mask0_22_3595)">
<path fill-rule="evenodd" clip-rule="evenodd" d="M0 30.0769H7.83978L20.3185 0.285156H12.4787L0 30.0769Z" fill="#01D662"/>
</g>
</svg>
